<?xml version="1.0" encoding="UTF-8" standalone="no"?>
<!-- Created with Inkscape (http://www.inkscape.org/) -->

<svg
   xmlns:dc="http://purl.org/dc/elements/1.1/"
   xmlns:cc="http://creativecommons.org/ns#"
   xmlns:rdf="http://www.w3.org/1999/02/22-rdf-syntax-ns#"
   xmlns:svg="http://www.w3.org/2000/svg"
   xmlns="http://www.w3.org/2000/svg"
   xmlns:sodipodi="http://sodipodi.sourceforge.net/DTD/sodipodi-0.dtd"
   xmlns:inkscape="http://www.inkscape.org/namespaces/inkscape"
   height="520"
   width="960"
   version="1.1"
   viewBox="0 0 253.99999 137.58335"
   id="svg4141"
   inkscape:version="0.91+devel+osxmenu r12922"
   sodipodi:docname="qr-code-scanner.svg"
   inkscape:export-filename="/Users/hideki/src/github.com/shrhdk/qr-theta/images/text76085.png"
   inkscape:export-xdpi="96"
   inkscape:export-ydpi="96">
  <sodipodi:namedview
     pagecolor="#ffffff"
     bordercolor="#666666"
     borderopacity="1"
     objecttolerance="10"
     gridtolerance="10"
     guidetolerance="10"
     inkscape:pageopacity="0"
     inkscape:pageshadow="2"
     inkscape:window-width="2332"
     inkscape:window-height="1111"
     id="namedview4193"
     showgrid="false"
     inkscape:zoom="0.55529412"
     inkscape:cx="-358.04146"
     inkscape:cy="-36.553423"
     inkscape:window-x="656"
     inkscape:window-y="768"
     inkscape:window-maximized="0"
     inkscape:current-layer="svg4141"
     inkscape:snap-global="true" />
  <defs
     id="defs4195">
    <rect
       height="5"
       width="5"
       id="p"
       x="0"
       y="0" />
  </defs>
  <metadata
     id="metadata4143">
    <rdf:RDF>
      <cc:Work
         rdf:about="">
        <dc:format>image/svg+xml</dc:format>
        <dc:type
           rdf:resource="http://purl.org/dc/dcmitype/StillImage" />
        <dc:title></dc:title>
      </cc:Work>
    </rdf:RDF>
  </metadata>
  <path
     style="fill:#ffffff;fill-rule:evenodd;stroke:#4d4d4d;stroke-width:0.20705816;stroke-miterlimit:4;stroke-dasharray:none"
     inkscape:connector-curvature="0"
     id="path4147-3"
     d="m 38.381131,15.880177 0,49.743354 102.779599,17.074897 0,-61.717837 z"
     sodipodi:nodetypes="ccccc" />
  <path
     style="fill:#000000;stroke-width:0.18840122"
     d="m 95.689687,33.514756 c -0.671862,-0.06167 -1.343732,-0.123335 -2.015587,-0.185003 0,1.624754 0,3.249502 0,4.874256 1.343725,0.162032 2.687457,0.324064 4.031183,0.486095 0,-1.66345 0,-3.326894 0,-4.990344 -0.671864,-0.06167 -1.343734,-0.123336 -2.015596,-0.185004 0,0 0,0 0,0 m 0,4.227684 c -0.479911,-0.05589 -0.959805,-0.111788 -1.439708,-0.167682 0,-1.164485 0,-2.328969 0,-3.493454 0.959797,0.09205 1.919619,0.184091 2.879416,0.276136 0,1.184228 0,2.368456 0,3.552683 -0.479895,-0.05589 -0.959805,-0.111788 -1.439708,-0.167683 0,0 0,0 0,0 m 0,-2.818452 c -0.252852,0.06135 -0.790556,-0.253219 -0.863822,0.04447 0,0.657433 0,1.314871 0,1.972308 0.575887,0.0647 1.151765,0.129408 1.727644,0.194112 0,-0.708169 0,-1.416334 0,-2.124503 -0.287936,-0.0288 -0.575879,-0.0576 -0.863822,-0.08639 0,0 0,0 0,0 m 1.151765,9.336771 c -0.466943,-0.137962 -0.971012,-0.192288 -0.950203,0.506683 -0.484278,0.02491 -1.16755,-0.317432 -1.151773,0.519533 -0.465589,0.303188 -1.604152,-0.517327 -0.77744,-0.770686 0.442573,0.0032 0.213519,-0.88643 0.820639,-0.676678 0.2259,-0.322175 -0.250168,-1.45809 0.311945,-1.251313 0.454492,0.03138 0.984002,0.08437 0.969392,0.794014 0.292709,-0.03714 1.168348,0.55343 1.065383,-0.119488 -0.06401,-0.337725 0.133814,-0.960873 -0.107495,-1.104653 -0.545601,-0.03164 -1.104654,-0.108298 -1.190041,-0.857746 -0.818424,-0.05744 -0.285831,-1.162686 0.324834,-0.675793 0.520041,-0.105804 0.388121,1.325488 0.960111,0.656614 0.233381,-0.678482 -1.049232,-0.627029 -0.417516,-1.279411 0.944275,0.276191 0.03764,-1.44692 -0.145779,-0.388361 -0.140513,0.790358 -0.688829,-0.0094 -0.72165,-0.428646 -0.783451,-0.337529 -0.193799,1.16986 -0.537618,1.323506 -0.521231,-0.102766 -1.067184,-0.05941 -1.569531,-0.297058 -0.444366,-1.182213 1.628381,0.09532 0.985975,-1.134979 -0.639816,-0.09252 -1.670108,-0.581354 -1.758243,0.412229 -0.766515,-0.01863 -0.511057,-1.667668 0.133172,-1.53112 0.233382,-0.665767 -1.049239,-0.598384 -0.417523,-1.243927 0.654599,0.221358 0.483753,-0.9045 -0.08818,-0.786053 -0.431383,-0.821383 1.03228,-0.44792 0.372532,-1.262033 -0.654606,0.08133 -0.483753,-1.003439 0.08818,-0.769437 0.271125,-0.388057 -0.694002,-0.678625 -0.664068,-0.0094 -0.614671,0.2358 -0.299001,-0.333441 -0.962811,-0.661187 0.06574,0.355408 -0.307202,1.36287 0.225572,1.293555 0.451886,-0.131069 1.341963,0.410698 0.623858,0.744275 -0.307687,0.100444 -1.052705,-0.39312 -0.89262,0.300339 0.23774,0.677476 -0.475881,1.496394 -0.574541,0.452835 0.151735,-0.648339 -0.173788,-0.906576 -0.564625,-1.128776 -0.246505,-0.752429 0.970723,-0.256187 0.476898,-1.094602 -0.484278,-0.165376 -1.16755,-0.292084 -1.151765,0.466666 -0.574361,0.137541 -1.110101,-0.05303 -1.211163,-0.729827 -0.623906,0.09328 -0.285721,-0.507262 -1.005994,-0.781491 -0.695386,0.192622 -0.514289,1.16519 -1.139173,0.392545 0.122451,-0.3403 -0.795494,-0.621871 -0.646068,0.04023 -0.677834,0.430981 -0.377299,-0.260791 -1.050984,-0.594303 0.06574,0.340957 -0.307203,1.305191 0.225563,1.240959 0.47815,-0.161078 1.347763,0.490262 0.595068,0.72148 -0.657745,0.09238 -0.06362,0.784869 0.275343,0.859621 0.06676,0.890267 -1.334544,0.437739 -1.284937,-0.29254 -0.574884,0.139219 -0.394976,-1.249878 -0.993401,-0.610169 -0.233382,0.62709 1.049231,0.561671 0.417515,1.174554 -0.73587,-0.128428 -0.338396,1.026911 -0.430115,1.556658 0.158481,0.567332 -0.353289,0.290041 -0.64502,0.289954 -0.360872,-0.045 -0.721759,-0.09 -1.082631,-0.135002 0,0.862093 0,1.724183 0,2.586276 -0.731384,0.113592 -0.497494,-1.081877 -1.330834,-0.830446 -0.579838,0.03009 -0.270758,-0.977387 -0.972702,-0.768891 -0.334421,-0.251143 -0.56947,0.925348 0.179062,0.663128 0.569728,0.0084 0.283757,0.886117 0.929512,0.863785 0.225908,0.358633 -0.25016,1.264222 0.311953,1.233661 0.472264,0.126017 1.0385,0.01345 1.442696,0.355423 -0.147087,1.061629 1.19044,0.265863 0.304135,-0.09448 -0.797522,-0.513582 0.235424,-0.784753 0.717964,-0.54583 0.431523,0.143279 -0.204888,1.281843 0.433801,1.37274 0.442581,0.0055 0.213535,-0.831121 0.820638,-0.631007 0.01722,-0.453235 -0.0055,-1.679822 0.606486,-0.964885 -0.177036,0.633686 1.05935,0.606792 0.442706,1.205857 -0.614671,-0.204166 -0.299008,0.854623 -0.962802,0.628049 -0.01722,0.45329 0.0055,1.680881 -0.606478,0.954245 0.01174,-0.866931 -1.287958,-0.669585 -1.724059,-0.621813 -0.148386,1.119238 -0.818714,-0.08799 -0.592078,-0.716055 -0.01902,-0.352186 -0.59005,-0.169807 -0.844647,-0.293423 -0.481445,-0.236602 -0.259215,0.418852 -0.307124,0.731652 0,0.382231 0,0.764468 0,1.1467 -0.38392,-0.06367 -0.767839,-0.127338 -1.151765,-0.191006 0.02669,-0.54731 -0.176856,-1.412499 0.532695,-1.286121 0.165704,-0.612256 0.04915,-1.224974 -0.520096,-1.421642 0.12483,-1.027048 -0.08258,-0.05384 -0.300543,0.116381 0.609428,0.311745 0.296755,1.528418 -0.287943,1.285677 0,0.826551 0,1.653102 0,2.479652 0.678006,-0.10556 0.76049,0.932378 0.0432,0.737652 0.09334,0.499483 0.133007,1.779295 0.525496,0.985843 -0.203135,-0.529916 0.274295,-1.455788 0.575894,-0.597088 -0.108552,0.612437 0.08432,1.029062 0.570479,1.25991 0.155694,1.193342 -1.50849,-0.506726 -1.664443,0.716543 0.634173,0.203452 1.730813,0.725034 1.822806,-0.192989 0.632803,-0.0947 0.264411,1.029807 1.014318,0.824877 0.578571,0.16132 1.219709,0.342234 1.289218,-0.385798 0.531326,-0.125984 0.441619,0.389361 0.430115,0.79984 0,0.62752 0,1.255035 0,1.882555 0.678006,-0.08989 0.760482,0.981186 0.04312,0.760874 -0.165696,0.616363 -0.04915,1.249588 0.520096,1.489742 0.233382,0.707247 -1.049223,0.215755 -0.417515,1.036624 0.623906,0.356384 0.285729,-0.90886 1.005994,-0.415189 0.731158,0.434419 0.407122,-0.76911 1.094182,-0.484734 -0.09599,-0.91199 1.381703,-0.541154 1.295745,0.300367 0.437651,0.0037 1.59095,0.552206 0.806231,0.890111 -0.422798,-0.323107 -1.33017,-0.01596 -0.673286,0.507159 0.587547,0.09146 1.581191,0.700086 1.623505,-0.241425 0.568248,0.172414 1.6908,-0.06457 1.698852,0.965824 0.29271,-0.01156 1.168348,0.632115 1.065384,-0.02694 0.04954,-0.552255 -0.126074,-1.266106 0.124172,-1.693937 0.760028,0.01166 0.361538,1.172593 0.451714,1.755004 -0.158472,0.540916 0.353297,0.432471 0.645028,0.537289 0.552832,0.125796 1.105671,0.251593 1.65851,0.377389 0.201961,-0.796449 -0.722284,-0.713386 -0.662268,-1.49043 -0.292701,-0.33682 -1.16834,0.04364 -1.065391,-0.608612 -0.181856,-0.613123 0.307805,-1.554581 0.575886,-0.591869 0.140521,0.823204 0.688845,0.223797 0.721658,-0.179397 0.86426,0.01637 -3.75e-4,1.650529 0.962811,1.69489 0.01722,0.489118 -0.0055,1.786438 0.606477,1.256592 -0.122442,-0.826681 0.795487,-0.41341 0.646069,0.254448 0.792145,0.513867 0.510439,-0.73743 -0.045,-0.824148 0.122451,-0.735551 -0.795486,-0.510451 -0.646068,-1.301757 -0.958412,-0.228426 -0.335688,-1.261232 0.374325,-0.68568 0.401182,0.188968 0.180846,0.954684 0.777448,0.93402 -0.104702,0.81597 0.79576,0.608818 0.691059,1.428402 0.508531,0.448891 0.591041,-0.01293 0.518301,-0.545072 0,-0.70656 0,-1.413114 0,-2.119674 -0.73139,-0.392003 -0.497492,1.016498 -1.33084,0.430325 -0.538558,-0.09257 -0.342513,-0.958473 -0.934317,-1.039872 -0.07145,-0.665571 -0.02536,-1.318753 -0.03843,-1.97752 0.575887,0.112088 1.151773,0.224174 1.727659,0.336261 0.05541,-0.504099 -0.221322,-1.598059 0.449195,-1.337338 0.282593,-0.0047 0.05189,-0.740071 0.126683,-1.041048 0,-1.546192 0,-3.092391 0,-4.638589 -0.287942,-0.0442 -0.575878,-0.08839 -0.863821,-0.132593 0,0 8e-6,-1.3e-5 8e-6,-1.3e-5 m -0.287943,2.080305 c -0.727684,-0.339979 -0.499718,0.997797 -1.313016,0.485019 -0.471858,-0.252618 -0.446244,0.184751 -0.414628,0.630596 -0.236003,0.81609 0.750348,1.05068 0.633469,0.180632 0.698877,-0.291183 0.628225,1.014618 -0.0144,0.736272 0.07924,0.549131 -0.173897,1.910743 -0.611869,0.872123 0.246951,-0.538125 -0.356051,-1.719352 -0.583086,-0.841235 -0.196342,1.037046 -1.087836,-0.733465 -0.12958,-0.389887 0.09137,-0.252675 0.347576,-1.35958 -0.08543,-1.393381 -0.532046,-0.165383 -0.988604,-0.141584 -1.08253,0.494209 -0.621902,0.105951 -0.273395,-0.991407 -0.948411,-0.908313 0.09555,-0.811676 -0.861059,-0.805836 -1.209355,-0.757177 0,0.435024 0,0.870042 0,1.305067 0.498638,0.11866 1.251708,0.0061 1.238146,0.853372 0.437659,-0.01728 1.590958,0.493188 0.80624,0.879592 -0.523313,-0.189905 -0.939122,-0.132448 -1.007801,0.467778 -0.532923,-0.01398 -1.07526,-0.169932 -1.612471,-0.254657 -0.01487,0.517545 -0.09238,1.809829 0.563279,1.300604 -0.02716,-1.246294 1.892017,0.615942 1.797841,-0.791294 0.792153,-0.179255 0.510447,0.931601 -0.045,0.789139 0.177036,0.725075 -1.05935,0.268441 -0.442706,1.105122 0.990326,0.399734 -1.26e-4,0.967782 -0.575785,0.588096 -0.431531,-0.171926 0.204888,-1.342549 -0.433809,-1.459324 -0.453709,-0.05714 -0.183296,0.887433 -0.806239,0.593657 -0.431375,0.678308 1.032272,0.757209 0.372525,1.358596 -0.621887,0.08254 -0.273395,-0.987484 -0.948411,-0.929311 -0.01792,-1.135149 -0.975536,-0.591523 -0.626277,0.313521 0.085,0.489583 0.748156,0.367147 0.626277,1.046432 0.646663,-0.07436 0.46267,1.377389 1.081583,0.807486 -0.09807,-0.75109 0.783082,-0.189324 0.674867,-1.004382 0.437651,-0.225908 1.59095,0.490003 0.806232,0.797217 -0.569571,-0.249912 -0.912616,-0.09203 -1.038385,0.46067 -0.864268,-0.402032 3.76e-4,1.897209 -0.962811,1.07004 -0.2259,-0.396647 0.250161,-1.330554 -0.311945,-1.329361 -0.472272,-0.160043 -1.038501,-0.07534 -1.442697,-0.456034 -0.27759,-0.804692 0.969298,-0.163389 0.473298,-1.055833 -0.574361,-0.313176 -1.110093,-0.28755 -1.211156,0.355874 -0.574884,-0.327169 -0.394977,1.149889 -0.993394,0.303874 0.0085,-0.887289 -1.343943,-0.875663 -1.310136,-0.127371 -0.623913,-0.284676 -0.285728,0.932116 -1.006001,0.456416 -0.705098,0.113988 -0.752484,-1.018889 -0.0576,-0.736627 -0.104702,-0.802062 0.795761,-0.235727 0.691059,-1.041404 0.698877,0.240331 0.628218,-0.774908 -0.0144,-0.829193 -0.01722,-0.662626 0.0055,-1.27296 -0.606478,-1.507491 0.131302,-0.688552 -0.865144,-0.492426 -0.588478,-1.259957 -0.31992,-0.850231 1.044974,-0.394925 0.430115,-1.221068 -0.614671,0.106686 -0.299009,-1.171252 -0.962811,-0.741715 -0.2259,0.292402 0.25016,1.372311 -0.311953,1.152763 -0.478142,-0.292625 -1.347762,0.100139 -0.595067,0.541647 0.83971,0.651595 -0.354369,0.759439 -0.844641,0.489199 -0.329387,-0.05646 -0.751692,-0.02683 -0.595066,-0.534272 0.08674,-0.502172 -0.294102,-1.634172 0.430114,-1.449196 0.205185,-0.261643 0.155499,-0.742441 0.664067,-0.581114 0.357147,-0.708572 -0.746348,-0.526536 -0.575886,-1.263404 -0.792144,0.0667 -0.510438,-1.294116 0.045,-0.540042 -0.09808,0.752912 0.783083,0.628197 0.67486,-0.0058 0.437659,-0.228288 1.590965,0.409254 0.806239,0.726138 -0.422797,-0.292284 -1.330178,0.05265 -0.673286,0.527307 0.626144,0.09228 1.575071,0.564459 1.654088,-0.34213 0.614672,0.214253 0.299009,-0.84496 0.962811,-0.614391 0.01722,-0.454657 -0.0055,-1.685936 0.606478,-0.961182 -0.122459,0.734242 0.795494,0.682693 0.646068,-0.0021 0.646663,0.305734 0.46267,-1.182028 1.081583,-0.401124 -0.04046,0.850096 0.937627,0.537125 1.413946,0.717596 0.528235,-0.11586 0.263072,0.576983 0.327651,0.938287 0.0601,0.617061 0.834506,0.666903 0.57454,1.493187 0.169805,0.669261 -0.426882,0.300117 -0.754949,0.299241 -0.579846,-0.214188 -0.270765,0.946479 -0.97271,0.505735 -0.705098,-0.397188 -0.752476,0.741393 -0.0576,0.729609 0.271126,0.974853 -0.694001,0.46951 -0.664068,-0.170916 -0.766507,-0.213931 -0.511057,1.455877 0.133172,1.519145 -0.12245,0.738292 0.795503,0.714845 0.646076,0.01807 0.935397,0.214905 0.137391,-1.566089 1.081576,-1.391753 -0.142141,-0.945828 0.98977,-0.05398 1.164372,-0.430527 0.02747,-0.612716 -0.06793,-1.275285 0.07309,-1.847187 1.0181,0.0295 0.200326,-1.00007 -0.449374,-0.813211 -0.389906,0.009 -0.120729,-0.656251 -0.199621,-0.964982 0.169812,-0.615034 -0.426883,-0.436424 -0.754949,-0.540315 -0.767705,-0.14089 -0.2471,-0.858715 0.166463,-0.82231 0.06675,-0.892257 -1.334537,-0.788672 -1.284937,-0.02992 -0.654606,0.112458 -0.483753,-0.983823 0.08818,-0.712123 0.343562,-0.760271 -0.796864,-0.755844 -1.094182,-0.692757 0.09227,0.552994 -0.09254,1.85942 -0.568687,0.891328 0.246967,-0.51874 -0.356051,-1.620698 -0.583078,-0.779929 -0.05478,0.666778 -0.758698,0.104989 -0.662268,-0.372802 -0.574353,-0.268235 -1.1101,-0.208501 -1.211155,0.425597 -0.574885,0.183564 -0.394977,-1.246944 -0.993402,-0.612367 0.122443,0.720842 -0.795494,0.197825 -0.646068,0.979122 -0.792145,0.189134 -0.510447,-0.853162 0.045,-0.741731 -0.177028,-0.671844 1.059366,-0.299603 0.442715,-1.060442 -0.818425,-0.05832 -0.285831,-1.074554 0.324834,-0.621575 0.520041,-0.0945 0.388121,1.225866 0.960103,0.612094 -0.177036,-0.677486 1.059365,-0.313194 0.442714,-1.076344 -0.922789,0.07514 -0.272769,-2.236418 0.145772,-0.983839 0.140512,0.769329 0.688844,0.154693 0.721658,-0.230689 0.622536,0.157556 0.324599,-1.04238 1.14505,-0.547035 0.569626,-0.02811 1.078281,0.09839 1.15848,0.786183 0.705161,0.241879 0.590262,-1.525947 -0.102573,-1.438715 -0.01722,-0.670446 0.0055,-1.29178 -0.606478,-1.470037 -0.154529,-0.809395 0.773269,-0.440692 0.649668,0.183751 0.484278,0.144937 1.167542,-0.01255 1.151765,0.790189 0.292709,0.295782 1.16834,-0.174163 1.065392,0.478814 0.02833,0.539554 0.04774,1.16686 -0.532696,1.084036 -0.01722,0.673731 0.0055,1.306767 -0.606478,1.351197 0.122443,0.782791 -0.795494,0.467552 -0.646068,-0.181538 -0.682552,-0.497855 -0.354048,0.826702 -1.036592,0.542708 0.08274,0.821596 -0.785548,0.627049 -0.719858,-0.106703 -0.574361,-0.26251 -1.110093,-0.1952 -1.211156,0.444823 -0.784374,-0.185065 -0.34299,1.029639 0.284821,0.712329 0.569626,-0.015 1.078289,0.120834 1.158488,0.805704 0.623913,0.303786 0.285728,-0.952325 1.005993,-0.517829 0.726706,0.466354 0.430209,-1.047703 1.108582,-0.426241 0.225908,0.372703 -0.25016,1.334601 0.311953,1.291173 0.266172,0.111735 0.794156,-0.04903 0.883011,0.247899 -0.09724,0.509887 0.09839,1.800163 0.559014,1.054024 -0.01237,-0.743292 0.260568,-1.830888 -0.546423,-2.031052 0.190058,-0.701345 -0.980543,-0.480177 -0.502096,-1.199288 0.574352,-0.123883 1.1101,0.08048 1.211155,0.767966 0.614671,-0.03757 0.299009,0.968505 0.96281,0.928626 0.01722,0.477786 -0.0055,1.750683 0.606478,1.181496 -0.177036,-0.712043 1.05935,-0.327226 0.442707,-1.129917 -0.614672,0.03548 -0.299002,-0.977699 -0.962803,-0.933177 -0.01722,-0.687341 0.0055,-1.323628 -0.606478,-1.51739 0.122443,-0.764033 -0.795494,-0.667354 -0.646076,0.02718 -0.792145,0.224303 -0.510447,-0.880534 0.045,-0.781089 -0.122443,-0.788843 0.795494,-0.483858 0.646076,0.179421 0.646663,-0.137009 0.46267,1.342515 1.081583,0.709164 -0.12483,-1.144097 1.179327,0.09565 0.300535,0.210682 -0.585849,0.166616 -0.325437,1.522101 0.275343,1.591312 -0.186559,0.962977 1.715858,0.307801 1.018601,1.332388 -0.654606,-0.237001 -0.483753,0.892026 0.08818,0.792999 0.432447,0.882618 -0.93952,0.32051 -0.431914,1.205966 0.437643,-0.03053 1.59095,0.448804 0.806239,0.86141 -0.307688,0.08662 -1.052713,-0.448027 -0.892621,0.260342 0.04242,0.547977 0.01518,1.11667 -0.532695,1.016893 -0.311797,0.507625 0.214388,1.964191 0.532695,1.023309 0.211689,-0.90007 1.863203,0.653571 1.814033,-0.694947 0.57436,0.072 1.110093,0.187021 1.211155,-0.547683 0.621895,-0.121702 0.273395,1.007813 0.948411,0.915357 0.238312,0.606611 -0.136083,0.675259 -0.518296,0.553314 0,0 1.6e-5,1.4e-5 1.6e-5,1.4e-5 m -3.743246,-4.77738 c -0.453702,-0.03255 -0.183297,0.906815 -0.80624,0.644595 0.210953,1.229979 -1.97213,0.203441 -0.921412,-0.202796 0.878785,-0.09181 -0.425372,-1.35631 -0.300542,-0.216902 -0.655585,0.0043 -0.578688,0.785619 -0.563279,1.455629 0.383919,0.05893 0.767838,0.117861 1.151765,0.176791 -0.01487,0.521656 -0.09238,1.825573 0.563286,1.290348 -0.177035,-0.715696 1.059358,-0.305441 0.442707,-1.120817 -0.654599,0.0458 -0.483745,-1.026026 0.08818,-0.762057 -0.203886,-0.82993 1.355417,-0.460107 0.345534,-1.264791 0,0 0,0 0,0 m -1.439708,5.97839 c -0.695387,0.256065 -0.514298,-1.334119 -1.139174,-0.712462 -0.154521,0.700363 0.77327,0.491244 0.649669,1.258712 0.437651,0.395185 1.590957,0.129856 0.806239,-0.481212 0,0 -0.137672,-0.0315 -0.137672,-0.0315 0,0 -0.179062,-0.03346 -0.179062,-0.03346 0,0 0,-7.3e-5 0,-7.3e-5 m -1.439709,0.424399 c -0.391494,-0.06675 -0.325131,-1.247693 -0.851238,-0.66112 -0.246497,0.677781 0.970746,0.527766 0.476906,1.221312 -0.398726,-0.05391 -1.468938,-0.280188 -0.919612,0.540349 0.784374,0.06247 0.342982,1.168829 -0.284821,0.634781 -0.313338,-0.01138 -0.789586,-0.245217 -1.012724,-0.134386 -0.125745,0.540537 0.167974,1.937636 0.575887,1.058474 0.198596,-0.635825 1.304901,0.261519 1.297536,-0.741571 0.574901,-0.163763 0.39497,1.315097 0.993402,0.687933 0.188047,-0.702601 -0.855628,-0.505828 -0.563279,-1.298789 -0.319919,-0.880148 1.044982,-0.411782 0.430107,-1.266159 0,0 -0.142164,-0.0408 -0.142164,-0.0408 0,0 0,0 0,0 0,0 0,-2.1e-5 0,-2.1e-5 m -1.15171,-12.381312 c -0.391494,-0.03778 -0.325131,-1.215325 -0.851222,-0.594546 -0.178522,0.706847 0.785204,0.403457 0.620869,1.177328 0.488019,0.485279 0.792866,-0.533383 0.230353,-0.582782 0,0 0,0 0,0 m -0.287943,8.743829 c -0.731158,0.157141 -0.407115,-0.943156 -1.094182,-0.914504 -0.111761,-1.212074 -0.878034,-0.406413 -0.633469,0.403587 -0.01049,0.57478 0.91645,0.07199 1.137373,0.566785 0.198346,0.778679 -0.783059,0.204444 -0.619077,1.021596 -0.750214,0.341925 -0.233241,-0.955223 -0.894562,-0.751375 -0.642421,-0.106538 -1.28485,-0.213076 -1.927272,-0.319613 0.28648,0.829648 -1.013608,0.427159 -0.430115,1.227601 0.468814,0.273631 0.587719,-1.032758 1.006001,-0.347957 0,0.839928 0,1.679856 0,2.519785 -0.762234,-0.469235 -0.652219,1.036724 -0.0126,0.491138 -0.04351,-0.947004 0.915848,-0.156275 0.589824,0.485825 0.02238,0.888471 0.700489,0.420142 0.720304,-0.0544 0.654607,0.266978 0.483745,-0.830681 -0.08818,-0.763705 0.178468,-0.751293 -0.987102,-0.617119 -0.547088,-1.312664 0.574353,0.08258 1.110093,0.204906 1.211156,-0.487826 0.621886,0.250985 0.273387,-0.877362 0.948411,-0.589172 -0.200897,-1.162846 1.602164,0.181509 1.122966,-1.04516 -0.157996,-0.09128 -0.326134,-0.09692 -0.489498,-0.12993 0,0 -1.5e-5,-1.3e-5 -1.5e-5,-1.3e-5 m -2.303538,1.624033 c -0.902294,0.05993 -0.569469,-1.148764 0.179063,-0.633531 0.706108,0.03859 0.401816,1.011367 -0.179063,0.633531 0,0 0,0 0,0 m 2.015595,-9.082569 c -0.893803,0.109273 0.456691,1.332156 0.275343,0.202919 -0.01526,-0.154661 -0.175478,-0.199034 -0.275343,-0.202919 0,0 0,0 0,0 m -1.151773,-0.134143 c -0.391487,-0.05014 -0.325124,1.129836 -0.851222,0.397963 0.124821,-1.07726 -1.179336,-0.184133 -0.300543,0.132231 0.391494,0.04267 0.325131,1.203301 0.85123,0.601442 -0.177036,-0.687856 1.05935,-0.330041 0.442714,-1.100427 0,0 -0.142179,-0.03119 -0.142179,-0.03119 0,0 0,-2.1e-5 0,-2.1e-5 m 0,14.719689 c -0.893795,0.02687 0.456691,1.364516 0.275351,0.226635 -0.01526,-0.154971 -0.175478,-0.213657 -0.275351,-0.226635 0,0 0,0 0,0 m -4.607068,-6.154542 c -0.89381,0.05025 0.456691,1.313605 0.275344,0.212776 -0.01526,-0.150176 -0.175487,-0.202867 -0.275344,-0.212776 0,0 0,0 0,0 m 14.397105,4.63409 c -0.391494,-0.07779 -0.325131,1.177523 -0.85123,0.368505 -0.188038,-0.799506 0.855636,-0.189832 0.563287,-1.13035 -0.188813,-1.142756 0.911473,-0.537831 0.574541,0.325663 0.01002,0.229574 -0.02199,0.564861 -0.286598,0.436182 0,0 0,0 0,0 M 95.113722,41.88884 c -0.893802,-0.348583 0.456692,-1.268304 0.275344,-0.139175 -0.01526,0.157165 -0.175478,0.161339 -0.275344,0.139175 0,0 0,0 0,0 m -1.151741,10.997531 c -0.25286,-0.138102 -0.790557,0.0088 -0.86383,-0.308338 0,-0.650767 0,-1.30154 0,-1.952312 0.575894,0.112087 1.151773,0.224174 1.727659,0.336261 0,0.701062 0,1.402119 0,2.103181 -0.287943,-0.05959 -0.575886,-0.119195 -0.863829,-0.178792 0,0 0,0 0,0 m 0,-1.395012 c -0.893795,0.04328 0.456691,1.414561 0.275343,0.231566 -0.01526,-0.161285 -0.175478,-0.219737 -0.275343,-0.231566 0,0 0,0 0,0 M 85.899657,35.273524 c -0.89381,-0.307103 0.456692,-1.211594 0.275344,-0.138642 -0.01526,0.149082 -0.175486,0.157089 -0.275344,0.138642 0,0 0,0 0,0 m -1.727659,14.929305 c -0.893795,-0.389407 0.456699,-1.154924 0.275351,-0.11079 -0.01526,0.146027 -0.175478,0.1386 -0.275351,0.11079 0,0 0,0 0,0 m -3.455293,-5.202061 c -0.893803,-0.359147 0.456683,-1.141174 0.275335,-0.115121 -0.01526,0.143247 -0.175478,0.139897 -0.275335,0.115121 0,0 0,0 0,0 m 16.41269,7.120099 c -0.902285,-0.411074 -0.569461,1.007704 0.179063,0.745191 0.706103,0.230136 0.401815,-0.925112 -0.179063,-0.745191 0,0 0,0 0,0 M 85.899657,53.875 c -0.89381,0.01065 0.456684,1.363056 0.275344,0.229967 -0.01526,-0.154149 -0.175486,-0.215292 -0.275344,-0.229967 0,0 0,0 0,0 M 83.596112,33.0596 c -0.893795,0.121629 0.456699,1.286882 0.275351,0.192452 -0.01526,-0.150054 -0.175478,-0.190404 -0.275351,-0.192452 0,0 0,0 0,0 m -2.879407,-0.919154 c -0.671871,-0.06167 -1.343733,-0.123335 -2.015603,-0.185003 0,1.481025 0,2.962044 0,4.443069 1.343732,0.162032 2.687455,0.324064 4.031188,0.486095 0,-1.51972 0,-3.039436 0,-4.559157 -0.671862,-0.06167 -1.343733,-0.123336 -2.015585,-0.185004 0,0 0,0 0,0 m 0,3.858096 c -0.479911,-0.05589 -0.959806,-0.111788 -1.439716,-0.167682 0,-1.061822 0,-2.123643 0,-3.185464 0.959805,0.09205 1.91961,0.18409 2.879414,0.276136 0,1.081564 0,2.163129 0,3.244692 -0.479902,-0.05589 -0.959804,-0.111788 -1.439698,-0.167682 0,0 0,0 0,0 m 0,-2.572061 c -0.25286,0.05376 -0.790557,-0.237923 -0.86383,0.03298 0,0.599668 0,1.199341 0,1.799013 0.575886,0.0647 1.151773,0.129408 1.72765,0.194112 0,-0.646572 0,-1.293138 0,-1.93971 -0.287943,-0.0288 -0.575877,-0.0576 -0.86382,-0.08639 0,0 0,0 0,0 m 0,15.432382 c -0.671871,-0.133532 -1.343733,-0.267065 -2.015603,-0.400597 0,1.48102 0,2.962045 0,4.443064 1.343732,0.305762 2.687455,0.611522 4.031188,0.917283 0,-1.519716 0,-3.039437 0,-4.559152 -0.671862,-0.133532 -1.343733,-0.267066 -2.015585,-0.400598 0,0 0,0 0,0 m 0,3.858096 c -0.479911,-0.107226 -0.959806,-0.214451 -1.439716,-0.321678 0,-1.061821 0,-2.123647 0,-3.185468 0.959805,0.194709 1.91961,0.389417 2.879414,0.584127 0,1.081563 0,2.163133 0,3.244696 -0.479902,-0.107225 -0.959804,-0.214451 -1.439698,-0.321677 0,0 0,0 0,0 m 0,-2.572066 c -0.25286,0.02672 -0.790557,-0.322483 -0.86383,-0.05941 0,0.599668 0,1.19934 0,1.799013 0.575886,0.126302 1.151773,0.252604 1.72765,0.378906 0,-0.646571 0,-1.293138 0,-1.939709 -0.287943,-0.05959 -0.575877,-0.119195 -0.86382,-0.178793 0,0 0,0 0,0 M 80.428754,37.248673 c -0.902286,-0.321725 -0.569462,0.941128 0.179062,0.663388 0.706114,0.169489 0.401817,-0.857862 -0.179062,-0.663388 0,0 0,0 0,0 m -1.439709,-0.179528 c 0.232983,0.231832 0.456692,1.264153 0.275344,0.195585 -0.01526,-0.146202 -0.175478,-0.190442 -0.275344,-0.195585 0,0 0,0 0,0"
     id="path7162"
     inkscape:connector-curvature="0" />
  <path
     sodipodi:nodetypes="ccc"
     inkscape:connector-curvature="0"
     id="path75679"
     d="M 78.638253,32.076625 36.879875,53.607522 97.705283,33.69976"
     style="fill:#ffd5d5;fill-opacity:0.456;fill-rule:evenodd;stroke:#ffaaaa;stroke-width:0.20705816px;stroke-linecap:butt;stroke-linejoin:miter;stroke-opacity:0.76799999" />
  <path
     sodipodi:nodetypes="ccc"
     inkscape:connector-curvature="0"
     id="path75679-9"
     d="m 97.705283,33.69976 -60.825408,19.907762 60.73181,3.439992"
     style="fill:#ffd5d5;fill-opacity:0.456;fill-rule:evenodd;stroke:#ffaaaa;stroke-width:0.20705816px;stroke-linecap:butt;stroke-linejoin:miter;stroke-opacity:0.76799999" />
  <g
     id="g4197"
     transform="matrix(0.78258196,0,0,0.78258196,-6.2860566,6.0036823)">
    <path
       style="fill:#333333;fill-rule:evenodd;stroke:#000000;stroke-width:0.26458001px"
       inkscape:connector-curvature="0"
       id="path4145"
       d="m 40.825662,50.601231 0,95.014009 c 0,1.5516 1.7948,2.4877 2.8063,2.8063 8.5168,2.6828 12.941,4.6395 20.42,5.2118 0.93698,0.0717 6.3069,-2.1695 6.3069,-3.3355 l 0,-99.697009 c 0,-3.517 -5.8482,-8.6732 -16.958,-8.6538 -2.5888,0.005 -12.575,2.2798 -12.575,8.6538 z" />
    <path
       style="fill:#4d4d4d;fill-rule:evenodd;stroke:#000000;stroke-width:0.26458001"
       inkscape:connector-curvature="0"
       id="path4147"
       d="m 36.811222,50.601231 0,95.014009 c 0,1.5516 1.7948,2.4877 2.8063,2.8063 8.5168,2.6828 15.674,4.3004 23.119,5.2118 2.0804,0.25466 3.6081,-0.78041 3.6081,-2.8063 l 0,-100.230009 c 0,-3.517 -5.8482,-8.6732 -16.958,-8.6538 -2.5888,0.005 -12.575,2.2798 -12.575,8.6538 z" />
    <path
       style="fill:none;stroke:#1a1a1a;stroke-width:0.26458001px"
       inkscape:connector-curvature="0"
       id="path4149"
       d="m 40.753462,59.822231 0,33.141 c 0,14.710009 17.1,16.640009 17.1,2.405405 l 0,-32.406005 c 0,-16.976 -17.1,-16.012 -17.1,-3.1404 z" />
    <path
       style="fill:none;stroke:#000000;stroke-width:0.26458001;stroke-linecap:round;stroke-linejoin:round"
       inkscape:connector-curvature="0"
       id="path4151"
       d="m 53.003162,93.392231 c 0,2.922505 -1.5123,5.291705 -3.7042,5.291705 -2.1919,0 -3.9687,-2.3692 -3.9687,-5.291705 0,-2.9225 1.5123,-5.2917 3.7042,-5.2917 2.1919,0 3.9688,2.3692 3.9688,5.2917 z" />
    <ellipse
       style="fill:#333333;stroke:#000000;stroke-width:0.26458001;stroke-linecap:round;stroke-linejoin:round"
       id="ellipse4153"
       cx="49.298164"
       cy="61.594234"
       ry="8.9982996"
       rx="6.8053002" />
    <ellipse
       style="fill:#1a1a1a;stroke:#000000;stroke-width:0.26458001;stroke-linecap:round;stroke-linejoin:round"
       id="ellipse4155"
       cx="48.489162"
       cy="61.476231"
       ry="7.2556"
       rx="5.9060001" />
    <ellipse
       style="fill:#333333;stroke:#000000;stroke-width:0.26458001;stroke-linecap:round;stroke-linejoin:round"
       id="ellipse4157"
       cx="48.422161"
       cy="61.013233"
       ry="5.1655002"
       rx="4.4278002" />
    <ellipse
       style="fill:#1a1a1a;stroke:#000000;stroke-width:0.26458001;stroke-linecap:round;stroke-linejoin:round"
       id="ellipse4159"
       cx="49.150162"
       cy="60.865231"
       ry="3.1965001"
       rx="2.5580001" />
    <ellipse
       style="fill:#ffffff"
       id="ellipse4161"
       cx="50.235161"
       cy="59.488232"
       ry="0.84189999"
       rx="0.56127" />
    <ellipse
       style="fill:#b3b3b3;stroke:#000000;stroke-width:0.13229001;stroke-linecap:round;stroke-linejoin:round"
       id="ellipse4163"
       cx="68.312164"
       cy="72.982224"
       ry="1.8709"
       rx="1.2862" />
    <ellipse
       style="fill:#b3b3b3;stroke:#000000;stroke-width:0.13229001;stroke-linecap:round;stroke-linejoin:round"
       id="ellipse4165"
       cx="68.312164"
       cy="85.934227"
       ry="1.8709"
       rx="1.2862" />
    <ellipse
       style="fill:#b3b3b3;stroke:#000000;stroke-width:0.13229001;stroke-linecap:round;stroke-linejoin:round"
       id="ellipse4167"
       cx="68.312164"
       cy="98.851219"
       ry="1.8709"
       rx="1.2862" />
    <ellipse
       style="fill:#35a4ff"
       id="ellipse4169"
       cx="68.316162"
       cy="73.002228"
       ry="1.0689"
       rx="0.64130998" />
    <path
       style="fill:none;stroke:#b3b3b3;stroke-width:0.13229001;stroke-linecap:round"
       inkscape:connector-curvature="0"
       id="path4171"
       d="m 68.260162,75.729231 0,1.0418 m -0.27492,-0.58522 c -0.3932,0.70598 -0.0275,1.1082 0.25003,1.1079 0.28927,-3.33e-4 0.72438,-0.50816 0.32255,-1.211" />
    <path
       style="fill:#b3b3b3"
       inkscape:connector-curvature="0"
       id="path4173"
       d="m 68.382162,83.110231 c 0.006,0.07823 -0.0632,0.18014 -0.15018,0.14608 -0.11274,-0.05352 -0.10891,-0.25367 0.0111,-0.29594 0.0857,-0.0218 0.14219,0.07607 0.13909,0.14985 z m -0.18673,-0.76494 c -0.17285,0.02066 -0.32205,0.16386 -0.3586,0.33216 0.0146,0.10065 0.14532,0.0621 0.14657,-0.02468 0.0828,-0.15636 0.3005,-0.24225 0.45756,-0.14385 0.0721,0.04069 0.11698,0.1119 0.16488,0.17592 0.0894,0.05512 0.14529,-0.08391 0.064,-0.13168 -0.11102,-0.14455 -0.29075,-0.23327 -0.47442,-0.20786 z m -0.0293,-0.56445 c -0.29007,0.02483 -0.55412,0.23716 -0.6353,0.51754 -0.01,0.10368 0.14503,0.08954 0.14191,-0.0065 0.0859,-0.22651 0.31954,-0.3788 0.55956,-0.38194 0.18446,-0.01079 0.36626,0.07873 0.47813,0.22433 0.0423,0.05186 0.0931,0.17778 0.17305,0.099 0.0472,-0.08297 -0.0626,-0.15185 -0.10579,-0.21269 -0.15762,-0.16055 -0.38448,-0.2612 -0.61156,-0.23976 z" />
    <path
       style="fill:none;stroke:#b3b3b3;stroke-width:0.10583;stroke-linecap:round;stroke-linejoin:round"
       inkscape:connector-curvature="0"
       id="path4175"
       d="m 68.886162,95.533236 0.29766,-0.13229 c -0.0126,-0.122825 0.003,-0.298925 -0.14677,-0.281125 -0.19311,0.02301 -0.15159,0.216925 -0.15001,0.413125 0.002,0.24872 0.16472,0.28569 0.28024,0.20699 m -0.463,-0.133 a 0.14883,0.3266 0 0 1 -0.14883,0.3266 0.14883,0.3266 0 0 1 -0.14882,-0.3266 0.14883,0.3266 0 0 1 0.14882,-0.326605 0.14883,0.3266 0 0 1 0.14883,0.326605 z m -0.43822,0.10336 a 0.1571,0.3266 0 0 1 -0.15709,0.3266 0.1571,0.3266 0 0 1 -0.1571,-0.3266 0.1571,0.3266 0 0 1 0.1571,-0.3266 0.1571,0.3266 0 0 1 0.15709,0.3266 z m 0.44649,-1.087305 0,1.289805 m -1.4139,0.32246 0.0331,-1.240205 0.20671,1.207205 0.25632,-1.265005 0,1.165805" />
    <path
       style="fill:none;stroke:#000000;stroke-width:0.26458001"
       inkscape:connector-curvature="0"
       id="path4185"
       d="m 66.324162,52.829231 3.9756,-0.74836" />
    <path
       style="fill:#ffffff"
       inkscape:connector-curvature="0"
       id="path4191"
       d="m 50.304162,84.088231 c 0,0.37129 -0.30099,0.6369 -0.67228,0.6369 -0.37129,0 -0.67228,-0.33637 -0.67228,-0.70766 0,-0.37129 0.30099,-0.6369 0.67228,-0.6369 0.37129,0 0.67228,0.33637 0.67228,0.70766 z" />
  </g>
  <text
     xml:space="preserve"
     style="font-style:normal;font-variant:normal;font-weight:normal;font-stretch:normal;font-size:16.93333435px;line-height:125%;font-family:'Noto Sans CJK JP';-inkscape-font-specification:'Noto Sans CJK JP';letter-spacing:0px;word-spacing:0px;writing-mode:lr-tb;fill:#1a1a1a;fill-opacity:1;stroke:none;stroke-width:0.26458335px;stroke-linecap:butt;stroke-linejoin:miter;stroke-opacity:1"
     x="100.69099"
     y="117.36825"
     id="text76085"
     sodipodi:linespacing="125%"><tspan
       sodipodi:role="line"
       id="tspan76087"
       x="100.69099"
       y="117.36825"
       style="font-style:normal;font-variant:normal;font-weight:normal;font-stretch:normal;font-size:16.93333435px;font-family:'Noto Sans CJK JP';-inkscape-font-specification:'Noto Sans CJK JP';writing-mode:lr-tb;fill:#1a1a1a;stroke-width:0.26458335px">QR Code Scanner</tspan></text>
  <flowRoot
     xml:space="preserve"
     id="flowRoot76089"
     style="fill:black;stroke:none;stroke-opacity:1;stroke-width:1px;stroke-linejoin:miter;stroke-linecap:butt;fill-opacity:1;font-family:'Noto Serif CJK JP';font-style:normal;font-weight:normal;font-size:96px;line-height:125%;letter-spacing:0px;word-spacing:0px;-inkscape-font-specification:'Noto Serif CJK JP';font-stretch:normal;font-variant:normal;writing-mode:tb"><flowRegion
       id="flowRegion76091"><rect
         id="rect76093"
         width="760.21472"
         height="671.07727"
         x="-14.007306"
         y="-41.565628" /></flowRegion><flowPara
       id="flowPara76095" /></flowRoot></svg>
